<?xml version="1.0" encoding="UTF-8"?>
<svg width="150px" height="31px" viewBox="0 0 150 31" version="1.1" xmlns="http://www.w3.org/2000/svg" xmlns:xlink="http://www.w3.org/1999/xlink">
    <!-- Generator: Sketch 41.2 (35397) - http://www.bohemiancoding.com/sketch -->
    <title>logo</title>
    <desc>Created with Sketch.</desc>
    <defs></defs>
    <g id="Page-1" stroke="none" stroke-width="1" fill="none" fill-rule="evenodd">
        <g id="UP-Main-Site" transform="translate(-47.000000, -26.000000)" fill="#ffffff">
            <g id="Landing-Page" transform="translate(0.000000, 26.000000)">
                <g id="logo" transform="translate(47.000000, 0.000000)">
                    <g id="Layer_1">
                        <g id="Group">
                            <path d="M0.305232558,0 L0.305232558,30.5232558 L74.7819767,30.5232558 L74.7819767,0 L0.305232558,0 Z M18.0087209,15.994186 C18.0087209,16.7877907 17.7645349,17.5203488 17.5203488,18.1918605 C17.2761628,18.8633721 16.8488372,19.4127907 16.3604651,19.9011628 C15.872093,20.3895349 15.3226744,20.755814 14.6511628,21 C13.9796512,21.244186 13.1860465,21.4273256 12.3313953,21.4273256 C11.4767442,21.4273256 10.6831395,21.3052326 10.0116279,21 C9.34011628,20.755814 8.72965116,20.3284884 8.30232558,19.8401163 C7.81395349,19.3517442 7.56976744,18.8023256 7.3255814,18.130814 C7.08139535,17.4593023 7.02034884,16.7267442 7.02034884,15.9331395 L7.02034884,7.93604651 L9.4622093,7.93604651 L9.4622093,15.9331395 C9.4622093,16.4215116 9.4622093,16.9098837 9.58430233,17.2761628 C9.70639535,17.7034884 9.88953488,18.0087209 10.1337209,18.3139535 C10.377907,18.619186 10.6831395,18.8023256 11.0494186,18.9854651 C11.4156977,19.1686047 11.8430233,19.2296512 12.3313953,19.2296512 C12.8197674,19.2296512 13.247093,19.1686047 13.6133721,18.9854651 C13.9796512,18.8023256 14.2848837,18.619186 14.5901163,18.3139535 C14.8343023,18.0087209 15.1395349,17.7034884 15.3226744,17.2761628 C15.4447674,16.8488372 15.627907,16.4215116 15.627907,15.9331395 L15.627907,7.93604651 L18.0697674,7.93604651 L18.0697674,15.994186 L18.0087209,15.994186 Z M28.5087209,21.3662791 C28.2645349,21.3662791 28.1424419,21.3052326 27.9593023,21.1831395 C27.8372093,21.122093 27.6540698,20.9389535 27.5930233,20.8168605 L24.7848837,16.5436047 C24.6627907,16.3604651 24.5406977,16.1773256 24.4186047,16.0552326 C24.2965116,15.9331395 24.1744186,15.872093 23.9302326,15.872093 L22.8924419,15.872093 L22.8924419,21.3662791 L20.4505814,21.3662791 L20.4505814,7.93604651 L24.4186047,7.93604651 C25.3343023,7.93604651 26.0668605,8.05813953 26.7383721,8.24127907 C27.4098837,8.4244186 27.8982558,8.72965116 28.3255814,9.03488372 C28.752907,9.40116279 29.0581395,9.76744186 29.2412791,10.255814 C29.4244186,10.744186 29.5465116,11.2325581 29.5465116,11.7819767 C29.5465116,12.2093023 29.4854651,12.6366279 29.3633721,13.0639535 C29.2412791,13.4302326 29.0581395,13.7965116 28.8139535,14.1627907 C28.5697674,14.4680233 28.2645349,14.7732558 27.8982558,15.0174419 C27.5319767,15.2616279 27.1046512,15.4447674 26.6773256,15.627907 C26.9825581,15.8110465 27.2877907,16.1162791 27.4709302,16.4215116 L30.7674419,21.3662791 L28.5087209,21.3662791 Z M41.8168605,18.9244186 C41.6337209,19.4127907 41.2674419,19.8401163 40.9011628,20.1453488 C40.4738372,20.5116279 39.9854651,20.8168605 39.375,21 C38.7645349,21.1831395 38.0930233,21.3052326 37.2994186,21.3052326 L32.0494186,21.3052326 L32.0494186,7.93604651 L36.872093,7.93604651 C37.7267442,7.93604651 38.4593023,8.05813953 39.0697674,8.24127907 C39.6802326,8.4244186 40.1686047,8.66860465 40.5959302,8.97383721 C40.9622093,9.27906977 41.2674419,9.64534884 41.4505814,10.0726744 C41.6337209,10.5 41.755814,10.9883721 41.755814,11.5377907 C41.755814,11.8430233 41.6947674,12.1482558 41.6337209,12.4534884 C41.5116279,12.7587209 41.3895349,13.002907 41.2063953,13.247093 C41.0232558,13.4912791 40.7790698,13.7354651 40.4738372,13.9186047 C40.1686047,14.1017442 39.8023256,14.2848837 39.4360465,14.4069767 C41.2674419,14.8343023 42.1831395,15.8110465 42.1831395,17.3372093 C42.122093,17.9476744 42,18.497093 41.8168605,18.9244186 Z M53.9651163,21.3662791 C53.7819767,21.3662791 53.5988372,21.244186 53.4156977,21.1831395 C53.2936047,21.0610465 53.1715116,21.0610465 53.1104651,20.9389535 L52.1337209,18.3139535 L46.6395349,18.3139535 L45.6627907,20.877907 C45.6017442,21 45.5406977,21.122093 45.3575581,21.244186 C45.2354651,21.3662791 45.0523256,21.3662791 44.869186,21.3662791 L42.9767442,21.3662791 L48.1656977,7.93604651 L50.6686047,7.93604651 L55.8575581,21.3662791 L53.9651163,21.3662791 Z M68.6773256,21.3662791 L67.1511628,21.3662791 C66.9680233,21.3662791 66.7848837,21.3052326 66.6627907,21.244186 C66.5406977,21.1831395 66.4186047,21.0610465 66.2965116,20.877907 L59.3372093,12.0261628 C59.3372093,12.2093023 59.3982558,12.3924419 59.4593023,12.5755814 C59.5203488,12.7587209 59.5203488,12.9418605 59.5203488,13.125 L59.5203488,21.3662791 L57.0784884,21.3662791 L57.0784884,7.93604651 L58.5436047,7.93604651 C58.6656977,7.93604651 58.7267442,7.99709302 58.7877907,7.99709302 C58.8488372,7.99709302 58.9098837,8.05813953 58.9709302,8.05813953 C59.0319767,8.05813953 59.0930233,8.11918605 59.1540698,8.18023256 C59.2151163,8.24127907 59.2761628,8.30232558 59.3372093,8.36337209 L66.2965116,17.2151163 C66.2965116,16.9709302 66.2354651,16.7877907 66.2354651,16.6046512 L66.2354651,16.0552326 L66.2354651,7.93604651 L68.6773256,7.93604651 L68.6773256,21.3662791 L68.6773256,21.3662791 Z" id="Shape"></path>
                            <path d="M38.6424419,13.4302326 C39.0697674,13.125 39.3139535,12.5755814 39.3139535,11.9040698 C39.3139535,11.2325581 39.130814,10.622093 38.7034884,10.3168605 C38.3372093,10.0116279 37.7267442,9.76744186 36.872093,9.76744186 L34.4912791,9.76744186 L34.4912791,14.0406977 L36.75,14.0406977 C37.6046512,14.0406977 38.2151163,13.7354651 38.6424419,13.4302326 Z" id="Shape"></path>
                            <path d="M49.6918605,11.1715116 C49.630814,10.9273256 49.5087209,10.622093 49.4476744,10.3168605 C49.3866279,10.622093 49.2645349,10.9273256 49.2034884,11.1715116 C49.1424419,11.4156977 49.0203488,11.7819767 48.9593023,11.9651163 L47.3110465,16.4825581 L51.5232558,16.4825581 L49.9360465,11.9651163 C49.8139535,11.7819767 49.752907,11.4767442 49.6918605,11.1715116 Z" id="Shape"></path>
                            <path d="M39.130814,15.994186 C38.9476744,15.8110465 38.7034884,15.627907 38.3982558,15.505814 C38.0930233,15.3837209 37.6656977,15.2616279 37.2383721,15.2616279 L34.4912791,15.2616279 L34.4912791,19.5348837 L37.2994186,19.5348837 C37.7877907,19.5348837 38.1540698,19.4127907 38.4593023,19.2906977 C38.7645349,19.1686047 39.0087209,18.9854651 39.1918605,18.8023256 C39.375,18.619186 39.497093,18.375 39.619186,18.130814 C39.6802326,17.8866279 39.7412791,17.6424419 39.7412791,17.3372093 C39.7412791,17.0319767 39.6802326,16.7877907 39.619186,16.5436047 C39.4360465,16.3604651 39.3139535,16.1162791 39.130814,15.994186 Z" id="Shape"></path>
                            <path d="M27.1046512,12.0261628 C27.1046512,11.3546512 26.8604651,10.744186 26.4331395,10.377907 C26.005814,10.0116279 25.3343023,9.76744186 24.4186047,9.76744186 L22.8924419,9.76744186 L22.8924419,14.0406977 L24.4186047,14.0406977 C24.9069767,14.0406977 25.2732558,14.1627907 25.6395349,14.0406977 C26.005814,13.9186047 26.25,13.8575581 26.494186,13.6133721 C26.7383721,13.4302326 26.8604651,13.1860465 26.9825581,12.9418605 C27.0436047,12.6366279 27.1046512,12.3924419 27.1046512,12.0261628 Z" id="Shape"></path>
                        </g>
                        <path d="M74.1715116,0 L74.1715116,30.5232558 L149.258721,30.5232558 L149.258721,0 L74.1715116,0 Z M146.81686,28.0813953 L76.6133721,28.0813953 L76.6133721,2.44186047 L146.81686,2.44186047 L146.81686,28.0813953 Z" id="Shape"></path>
                        <g id="Piper" transform="translate(84.854651, 7.936047)">
                            <path d="M1.89244186,8.54651163 L1.89244186,13.4302326 L0.122093023,13.4302326 L0.122093023,0.305232558 L3.96802326,0.305232558 C4.82267442,0.305232558 5.49418605,0.427325581 6.10465116,0.610465116 C6.71511628,0.793604651 7.20348837,1.09883721 7.63081395,1.40406977 C8.05813953,1.77034884 8.36337209,2.19767442 8.54651163,2.68604651 C8.72965116,3.1744186 8.85174419,3.72383721 8.85174419,4.33430233 C8.85174419,4.94476744 8.72965116,5.49418605 8.54651163,5.98255814 C8.30232558,6.47093023 7.99709302,6.89825581 7.63081395,7.26453488 C7.20348837,7.63081395 6.71511628,7.93604651 6.10465116,8.11918605 C5.49418605,8.30232558 4.82267442,8.4244186 4.02906977,8.4244186 L1.89244186,8.4244186 L1.89244186,8.54651163 Z M1.89244186,7.08139535 L4.02906977,7.08139535 C4.51744186,7.08139535 5.00581395,7.02034884 5.37209302,6.89825581 C5.73837209,6.77616279 6.10465116,6.59302326 6.34883721,6.34883721 C6.59302326,6.10465116 6.8372093,5.7994186 6.95930233,5.49418605 C7.08139535,5.18895349 7.14244186,4.76162791 7.14244186,4.39534884 C7.14244186,3.54069767 6.89825581,2.93023256 6.34883721,2.44186047 C5.86046512,1.95348837 5.06686047,1.70930233 4.02906977,1.70930233 L1.89244186,1.70930233 L1.89244186,7.08139535 L1.89244186,7.08139535 Z" id="Shape"></path>
                            <polygon id="Shape" points="15.0784884 13.4302326 13.3081395 13.4302326 13.3081395 0.305232558 15.0784884 0.305232558"></polygon>
                            <path d="M21.1831395,8.54651163 L21.1831395,13.4302326 L19.4127907,13.4302326 L19.4127907,0.305232558 L23.2587209,0.305232558 C24.1133721,0.305232558 24.7848837,0.427325581 25.3953488,0.610465116 C26.005814,0.793604651 26.494186,1.09883721 26.9215116,1.40406977 C27.3488372,1.77034884 27.6540698,2.19767442 27.8372093,2.68604651 C28.0203488,3.1744186 28.1424419,3.72383721 28.1424419,4.33430233 C28.1424419,4.94476744 28.0203488,5.49418605 27.8372093,5.98255814 C27.5930233,6.47093023 27.2877907,6.89825581 26.9215116,7.26453488 C26.494186,7.63081395 26.005814,7.93604651 25.3953488,8.11918605 C24.7848837,8.30232558 24.1133721,8.4244186 23.3197674,8.4244186 L21.1831395,8.4244186 L21.1831395,8.54651163 Z M21.1831395,7.08139535 L23.3197674,7.08139535 C23.8081395,7.08139535 24.2965116,7.02034884 24.6627907,6.89825581 C25.0290698,6.77616279 25.3953488,6.59302326 25.6395349,6.34883721 C25.8837209,6.10465116 26.127907,5.7994186 26.25,5.49418605 C26.372093,5.18895349 26.4331395,4.76162791 26.4331395,4.39534884 C26.4331395,3.54069767 26.1889535,2.93023256 25.6395349,2.44186047 C25.1511628,1.95348837 24.3575581,1.70930233 23.3197674,1.70930233 L21.1831395,1.70930233 L21.1831395,7.08139535 L21.1831395,7.08139535 Z" id="Shape"></path>
                            <polygon id="Shape" points="40.9622093 0.305232558 40.9622093 1.77034884 34.6744186 1.77034884 34.6744186 6.10465116 39.8023256 6.10465116 39.8023256 7.50872093 34.6744186 7.50872093 34.6744186 11.9651163 40.9622093 11.9651163 40.9622093 13.4302326 32.9040698 13.4302326 32.9040698 0.305232558"></polygon>
                            <path d="M47.25,7.93604651 L47.25,13.4302326 L45.4796512,13.4302326 L45.4796512,0.305232558 L49.2034884,0.305232558 C50.0581395,0.305232558 50.7296512,0.36627907 51.3401163,0.549418605 C51.9505814,0.73255814 52.4389535,0.976744186 52.8662791,1.28197674 C53.2325581,1.5872093 53.5377907,1.95348837 53.7209302,2.44186047 C53.9040698,2.86918605 54.0261628,3.41860465 54.0261628,3.96802326 C54.0261628,4.45639535 53.9651163,4.88372093 53.7819767,5.25 C53.6598837,5.67732558 53.4156977,6.04360465 53.1715116,6.34883721 C52.8662791,6.65406977 52.5610465,6.95930233 52.1337209,7.14244186 C51.7063953,7.38662791 51.2790698,7.56976744 50.7906977,7.63081395 C51.0348837,7.75290698 51.2180233,7.93604651 51.4011628,8.18023256 L55.247093,13.369186 L53.6598837,13.369186 C53.3546512,13.369186 53.1104651,13.247093 52.9273256,13.002907 L49.5087209,8.30232558 C49.3866279,8.18023256 49.2645349,8.05813953 49.1424419,7.99709302 C49.0203488,7.93604651 48.8372093,7.93604651 48.5930233,7.93604651 L47.25,7.93604651 Z M47.25,6.65406977 L49.0813953,6.65406977 C49.630814,6.65406977 50.0581395,6.59302326 50.4244186,6.47093023 C50.7906977,6.34883721 51.1569767,6.16569767 51.4011628,5.92151163 C51.6453488,5.67732558 51.8895349,5.43313953 52.0116279,5.12790698 C52.1337209,4.82267442 52.1947674,4.45639535 52.1947674,4.09011628 C52.1947674,3.29651163 51.9505814,2.74709302 51.4011628,2.31976744 C50.9127907,1.95348837 50.119186,1.70930233 49.0813953,1.70930233 L47.127907,1.70930233 L47.127907,6.65406977 L47.25,6.65406977 Z" id="Shape"></path>
                        </g>
                    </g>
                </g>
            </g>
        </g>
    </g>
</svg>
